<svg width="20" height="20" viewBox="0 0 20 20" fill="none" xmlns="http://www.w3.org/2000/svg">
<path d="M10 18.9583C5.05835 18.9583 1.04169 14.9417 1.04169 10C1.04169 5.05833 5.05835 1.04167 10 1.04167C14.9417 1.04167 18.9584 5.05833 18.9584 10C18.9584 14.9417 14.9417 18.9583 10 18.9583ZM10 2.29167C5.75002 2.29167 2.29169 5.75 2.29169 10C2.29169 14.25 5.75002 17.7083 10 17.7083C14.25 17.7083 17.7084 14.25 17.7084 10C17.7084 5.75 14.25 2.29167 10 2.29167Z" fill="#636363"/>
<path d="M7.64165 12.9833C7.48332 12.9833 7.32499 12.925 7.19999 12.8C6.95832 12.5583 6.95832 12.1583 7.19999 11.9167L11.9167 7.2C12.1583 6.95833 12.5583 6.95833 12.8 7.2C13.0417 7.44167 13.0417 7.84167 12.8 8.08333L8.08332 12.8C7.96665 12.925 7.79999 12.9833 7.64165 12.9833Z" fill="#636363"/>
<path d="M12.3583 12.9833C12.2 12.9833 12.0417 12.925 11.9167 12.8L7.19999 8.08333C6.95832 7.84167 6.95832 7.44167 7.19999 7.2C7.44165 6.95833 7.84165 6.95833 8.08332 7.2L12.8 11.9167C13.0417 12.1583 13.0417 12.5583 12.8 12.8C12.675 12.925 12.5167 12.9833 12.3583 12.9833Z" fill="#636363"/>
</svg>
