<svg width="18" height="19" viewBox="0 0 18 19" fill="none" xmlns="http://www.w3.org/2000/svg">
<path d="M9 17.5624C4.5525 17.5624 0.9375 13.9474 0.9375 9.49988C0.9375 5.05238 4.5525 1.43738 9 1.43738C13.4475 1.43738 17.0625 5.05238 17.0625 9.49988C17.0625 13.9474 13.4475 17.5624 9 17.5624ZM9 2.56238C5.175 2.56238 2.0625 5.67488 2.0625 9.49988C2.0625 13.3249 5.175 16.4374 9 16.4374C12.825 16.4374 15.9375 13.3249 15.9375 9.49988C15.9375 5.67488 12.825 2.56238 9 2.56238Z" fill="white"/>
<path d="M7.93508 12.1853C7.78508 12.1853 7.64258 12.1253 7.53758 12.0203L5.41508 9.89782C5.19758 9.68032 5.19758 9.32032 5.41508 9.10282C5.63258 8.88532 5.99258 8.88532 6.21008 9.10282L7.93508 10.8278L11.7901 6.97282C12.0076 6.75532 12.3676 6.75532 12.5851 6.97282C12.8026 7.19032 12.8026 7.55032 12.5851 7.76782L8.33258 12.0203C8.22758 12.1253 8.08508 12.1853 7.93508 12.1853Z" fill="white"/>
</svg>
